<svg width="14" height="10" viewBox="0 0 14 10" fill="none" xmlns="http://www.w3.org/2000/svg">
<path d="M8.19186 6.37138C7.8592 6.58083 7.47279 6.69155 7.07438 6.69155C6.67601 6.69155 6.2896 6.58083 5.95693 6.37138L0.477702 2.92146C0.447302 2.90232 0.417687 2.88236 0.388672 2.86184V8.51492C0.388672 9.16305 0.945597 9.67743 1.6196 9.67743H12.5291C13.2154 9.67743 13.7601 9.15146 13.7601 8.51492V2.86182C13.731 2.88239 13.7013 2.90239 13.6709 2.92155L8.19186 6.37138Z" fill="#1C188F"/>
<path d="M0.912359 2.30529L6.39158 5.75541C6.59899 5.88602 6.8367 5.95131 7.07441 5.95131C7.31214 5.95131 7.54987 5.886 7.75729 5.75541L13.2365 2.30529C13.5644 2.09896 13.7601 1.75364 13.7601 1.38094C13.7601 0.740089 13.2081 0.21875 12.5296 0.21875H1.61924C0.940747 0.218775 0.388733 0.740114 0.388733 1.38155C0.388733 1.75364 0.584499 2.09896 0.912359 2.30529Z" fill="#1C188F"/>
</svg>
