<svg width="26" height="27" viewBox="0 0 26 27" fill="none" xmlns="http://www.w3.org/2000/svg">
<path d="M26 13.6362C26 20.816 20.1798 26.6362 13 26.6362C5.82021 26.6362 0 20.816 0 13.6362C0 6.45644 5.82021 0.63623 13 0.63623C20.1798 0.63623 26 6.45644 26 13.6362Z" fill="white"/>
<path d="M25.7655 16.1016L20.2782 10.6142H18.5617V12.8998H17.455L13.8012 9.24828C13.4612 8.89003 13.0791 8.57562 12.658 8.30823C11.691 7.69211 10.6236 7.37988 9.48578 7.37988C7.82032 7.37988 6.37782 8.00076 5.19854 9.22527C4.02919 10.4395 3.43628 11.9236 3.43628 13.6365C3.43628 15.3496 4.02919 16.8337 5.19854 18.0477C5.19854 18.0477 11.0985 23.9483 13.7673 26.6133C19.7588 26.2646 24.6604 21.8583 25.7655 16.1016Z" fill="white"/>
<path d="M9.59981 12.9069V15.3904H12.918C12.7008 15.8609 12.3902 16.2827 11.9915 16.6483C11.2768 17.2953 10.4337 17.6232 9.48575 17.6232C8.44514 17.6232 7.5416 17.233 6.79972 16.4634C6.05308 15.6888 5.67461 14.7376 5.67461 13.6365C5.67461 12.5354 6.05328 11.5842 6.79992 10.8094C7.5416 10.0399 8.44534 9.64977 9.48575 9.64977C10.1995 9.64977 10.8666 9.84198 11.4672 10.2201C11.8903 10.4896 12.2527 10.8384 12.5443 11.2567L12.7048 11.4872L14.6991 10.4452L14.5097 10.1514C14.0265 9.40161 13.4034 8.78152 12.658 8.30803C11.691 7.69211 10.6236 7.37988 9.48575 7.37988C7.8203 7.37988 6.378 8.00076 5.19854 9.22527C4.02919 10.4393 3.43628 11.9236 3.43628 13.6365C3.43628 15.3496 4.02919 16.8337 5.19854 18.0475C6.3778 19.2722 7.8203 19.8931 9.48575 19.8931C11.1459 19.8931 12.588 19.2722 13.773 18.0477C14.9425 16.8335 15.0185 15.59 15.1542 14.2238V12.9067H9.59981V12.9069Z" fill="#1C188F"/>
<path d="M14.6992 10.4452L13 11.3329V8.54248C13.5957 8.97908 14.1025 9.51942 14.5098 10.1512L14.6992 10.4452Z" fill="#1C188F"/>
<path d="M15.1543 12.9067V14.2241C15.0186 15.59 14.9424 16.8338 13.7728 18.0479C13.5267 18.3028 13.2686 18.5314 13 18.7329V12.9067H15.1543Z" fill="#1C188F"/>
<path d="M20.2782 12.8998V10.6143H18.5617V12.8998H16.276V14.6165H18.5617V16.902H20.2782V14.6165H22.5637V12.8998H20.2782Z" fill="#1C188F"/>
</svg>
