<svg width="14" height="15" viewBox="0 0 14 15" fill="none" xmlns="http://www.w3.org/2000/svg">
<path d="M13.3396 10.6166L11.4239 8.5978C10.7397 7.87681 9.57657 8.16523 9.30289 9.10249C9.09763 9.75141 8.41344 10.1119 7.79767 9.96768C6.42928 9.60718 4.58197 7.73261 4.23987 6.21853C4.03461 5.56961 4.44513 4.84862 5.0609 4.63236C5.95035 4.34396 6.22403 3.11828 5.53984 2.39729L3.6241 0.378519C3.07675 -0.126173 2.25572 -0.126173 1.77678 0.378519L0.476818 1.7484C-0.823146 3.19038 0.613656 7.01162 3.82936 10.4003C7.04506 13.7889 10.6713 15.3751 12.0397 13.9331L13.3396 12.5632C13.8186 11.9864 13.8186 11.1213 13.3396 10.6166Z" fill="#1C188F"/>
</svg>
