<svg width="26" height="26" viewBox="0 0 26 26" fill="none" xmlns="http://www.w3.org/2000/svg">
<path d="M11.4452 10.8657L15.5009 13.4407L11.4452 16.0174V10.8657Z" fill="white"/>
<path d="M13 0C10.4288 0 7.91543 0.762436 5.77759 2.19089C3.63975 3.61935 1.97351 5.64967 0.989572 8.02511C0.00563266 10.4006 -0.251811 13.0144 0.249797 15.5362C0.751405 18.0579 1.98953 20.3743 3.80762 22.1924C5.6257 24.0105 7.94208 25.2486 10.4638 25.7502C12.9856 26.2518 15.5994 25.9944 17.9749 25.0104C20.3503 24.0265 22.3806 22.3602 23.8091 20.2224C25.2376 18.0846 26 15.5712 26 13C26 9.55218 24.6304 6.24558 22.1924 3.80761C19.7544 1.36964 16.4478 0 13 0V0ZM19.1955 16.1285C18.9355 16.9274 18.0751 17.4132 17.2832 17.5243C14.4357 17.8271 11.5643 17.8271 8.71685 17.5243C7.92487 17.4132 7.06448 16.9274 6.80448 16.1285C6.3991 14.0631 6.3991 11.9386 6.80448 9.87315C7.06448 9.06579 7.92487 8.58855 8.72369 8.47737C11.5711 8.1746 14.4426 8.1746 17.29 8.47737C18.082 8.58855 18.9424 9.07263 19.2024 9.87315C19.6055 11.939 19.6032 14.0636 19.1955 16.1285Z" fill="white"/>
</svg>
