<svg width="12" height="15" viewBox="0 0 12 15" fill="none" xmlns="http://www.w3.org/2000/svg">
<path d="M6.07454 0.0656738C4.65231 0.0656738 3.28834 0.63065 2.28268 1.63631C1.27701 2.64198 0.712036 4.00595 0.712036 5.42817C0.712036 8.26055 5.48954 14.2519 5.69429 14.5103C5.73997 14.5672 5.79785 14.6132 5.86366 14.6448C5.92948 14.6763 6.00154 14.6927 6.07454 14.6927C6.14753 14.6927 6.2196 14.6763 6.28541 14.6448C6.35122 14.6132 6.40911 14.5672 6.45479 14.5103C6.65954 14.2519 11.437 8.26055 11.437 5.42817C11.437 4.00595 10.8721 2.64198 9.8664 1.63631C8.86073 0.63065 7.49676 0.0656738 6.07454 0.0656738ZM6.07454 6.89067C5.68886 6.89067 5.31185 6.77631 4.99117 6.56204C4.6705 6.34777 4.42056 6.04322 4.27297 5.68691C4.12538 5.33059 4.08676 4.93851 4.162 4.56025C4.23725 4.18198 4.42297 3.83453 4.69568 3.56182C4.96839 3.2891 5.31585 3.10338 5.69411 3.02814C6.07237 2.9529 6.46445 2.99152 6.82077 3.13911C7.17708 3.2867 7.48163 3.53664 7.6959 3.85731C7.91017 4.17799 8.02454 4.555 8.02454 4.94067C8.02454 5.45785 7.81909 5.95384 7.45339 6.31953C7.0877 6.68523 6.59171 6.89067 6.07454 6.89067Z" fill="#1C188F"/>
</svg>
