<svg width="231" height="63" viewBox="0 0 231 63" fill="none" xmlns="http://www.w3.org/2000/svg">
<g clip-path="url(#clip0_2_108)">
<path d="M39.4355 39.3748H12.8216V40.0017H39.4355V39.3748Z" fill="#B7AEAE"/>
<path d="M18.8077 38.9703V49.5673C18.8077 49.7291 18.6661 49.8707 18.5043 49.8707C18.3426 49.8707 18.201 49.7291 18.201 49.5673V38.9703C18.201 38.8085 18.3426 38.667 18.5043 38.667C18.6661 38.6467 18.8077 38.7883 18.8077 38.9703Z" fill="#B7AEAE"/>
<path d="M22.913 38.9703V49.5673C22.913 49.7291 22.7715 49.8707 22.6097 49.8707C22.4479 49.8707 22.3063 49.7291 22.3063 49.5673V38.9703C22.3063 38.8085 22.4479 38.667 22.6097 38.667C22.7715 38.6467 22.913 38.7883 22.913 38.9703Z" fill="#B7AEAE"/>
<path d="M26.9981 38.9703V49.5673C26.9981 49.7291 26.8566 49.8707 26.6948 49.8707C26.533 49.8707 26.3914 49.7291 26.3914 49.5673V38.9703C26.3914 38.8085 26.533 38.667 26.6948 38.667C26.8566 38.6467 26.9981 38.7883 26.9981 38.9703Z" fill="#B7AEAE"/>
<path d="M31.0833 38.9703V49.5673C31.0833 49.7291 30.9417 49.8707 30.7799 49.8707C30.6181 49.8707 30.4766 49.7291 30.4766 49.5673V38.9703C30.4766 38.8085 30.6181 38.667 30.7799 38.667C30.9417 38.6467 31.0833 38.7883 31.0833 38.9703Z" fill="#B7AEAE"/>
<path d="M35.1683 38.9703V49.5673C35.1683 49.7291 35.0268 49.8707 34.865 49.8707C34.7032 49.8707 34.5616 49.7291 34.5616 49.5673V38.9703C34.5616 38.8085 34.7032 38.667 34.865 38.667C35.0268 38.6467 35.1683 38.7883 35.1683 38.9703Z" fill="#B7AEAE"/>
<path d="M39.4355 43.1362H12.8216V43.7632H39.4355V43.1362Z" fill="#B7AEAE"/>
<path d="M39.4355 46.8777H12.8216V47.5046H39.4355V46.8777Z" fill="#B7AEAE"/>
<path d="M21.5176 21.1335L21.2952 21.5379L14.1159 18.8078L15.026 17.0483L21.5176 21.1335Z" fill="#8F8432"/>
<path d="M29.971 12.215L29.5867 12.4981L24.3893 6.83555L25.987 5.6626L29.971 12.215Z" fill="#8F8432"/>
<path d="M41.4781 7.62419L41.0129 7.70509L38.8895 0.323573L40.8309 0L41.4781 7.62419Z" fill="#8F8432"/>
<path d="M53.4907 8.49386L53.9356 8.63542L57.0703 1.61793L55.1895 1.01123L53.4907 8.49386Z" fill="#8F8432"/>
<path d="M64.1686 14.399L64.5124 14.7024L70.1547 9.50499L68.6582 8.21069L64.1686 14.399Z" fill="#8F8432"/>
<path d="M71.267 23.9647L71.449 24.4097L78.7699 22.0435L77.9609 20.2437L71.267 23.9647Z" fill="#8F8432"/>
<path d="M73.8353 36.1795L73.8556 35.7143L81.5202 35.2087L81.4393 37.1704L73.8353 36.1795Z" fill="#8F8432"/>
<path d="M58.7083 37.8985L58.7286 37.676C58.7488 37.2918 58.769 36.9682 58.769 36.6649C58.769 29.3238 52.8031 23.3579 45.4621 23.3579C38.121 23.3579 32.1551 29.3238 32.1551 36.6649C32.1551 36.9682 32.1753 37.2716 32.1955 37.6558L32.2158 37.8783H20.1829L20.1627 37.6963C20.1222 37.0491 20.0818 36.402 20.0818 35.7548C19.9604 21.5378 31.3866 9.90941 45.6036 9.78807C59.8206 9.66673 71.449 21.0525 71.5906 35.2897C71.5906 35.4515 71.5906 35.593 71.5906 35.7548C71.5906 36.4222 71.5704 37.0693 71.5097 37.7367L71.4895 37.9187L58.7083 37.8985Z" fill="#1C188F"/>
<path d="M71.4895 38.1008H58.6881C58.6274 38.1008 58.587 38.0806 58.5465 38.0402C58.5061 37.9997 58.4859 37.939 58.4859 37.8784L58.5061 37.6559C58.5263 37.2717 58.5465 36.9481 58.5465 36.665C58.5465 29.4453 52.6615 23.5603 45.4418 23.5603C38.2221 23.5603 32.3371 29.4453 32.3371 36.665C32.3371 36.9683 32.3573 37.2717 32.3775 37.6357L32.3978 37.8582C32.3978 37.9188 32.3775 37.9795 32.3371 38.0199C32.2966 38.0604 32.236 38.0806 32.1955 38.0806H20.1627C20.0615 38.0806 19.9604 37.9997 19.9604 37.8986L19.9402 37.7166C19.8997 37.0694 19.8593 36.4223 19.8593 35.7549C19.7582 21.4368 31.3057 9.68706 45.6036 9.56572C52.5402 9.50505 59.0723 12.1341 64.0271 16.9877C68.9818 21.8413 71.7321 28.333 71.7928 35.2696C71.7928 35.4314 71.7928 35.5729 71.7928 35.7347C71.7928 36.4021 71.7726 37.0897 71.7119 37.7166L71.6917 37.8986C71.6917 38.0199 71.6108 38.1008 71.4895 38.1008ZM58.9308 37.6964H71.3075C71.3479 37.0694 71.3884 36.4021 71.3884 35.7347C71.3884 35.5729 71.3884 35.4314 71.3884 35.2898C71.3277 28.4745 68.6178 22.084 63.7439 17.291C58.9308 12.5588 52.5807 9.97019 45.8463 9.97019C45.7654 9.97019 45.6845 9.97019 45.6036 9.97019C31.5282 10.0915 20.1627 21.6593 20.284 35.7347C20.284 36.3818 20.3042 37.029 20.3649 37.6559H31.9933C31.9731 37.2717 31.9529 36.9683 31.9529 36.6448C31.9529 29.2026 38.0199 23.1356 45.462 23.1356C52.9042 23.1356 58.9712 29.2026 58.9712 36.6448C58.9712 36.9683 58.951 37.2919 58.9308 37.6964Z" fill="#8F8432"/>
<path d="M51.2257 35.1076H39.5973C39.6175 35.4312 39.6377 35.775 39.6377 36.1188C39.6377 43.5812 33.5909 49.628 26.1285 49.628C18.6661 49.628 12.6194 43.5812 12.6194 36.1188C12.6194 35.775 12.6396 35.4312 12.6598 35.0874H0.262901C0.222454 35.7345 0.182007 36.4019 0.182007 37.0491C0.0808907 51.1649 11.406 62.6922 25.5218 62.8136C39.6377 62.9349 51.165 51.6098 51.2864 37.494C51.2864 37.3524 51.2864 37.1906 51.2864 37.0491C51.2864 36.4019 51.2661 35.7548 51.2257 35.1076Z" fill="#1C188F"/>
<path d="M25.7443 63.0159C25.6634 63.0159 25.5825 63.0159 25.5218 63.0159C11.325 62.8946 -0.121361 51.2459 -2.06887e-05 37.0491C-2.06887e-05 36.3818 0.0202026 35.7144 0.0808726 35.0673C0.0808726 34.9661 0.181989 34.8853 0.283106 34.8853L12.68 34.9055C12.7407 34.9055 12.7811 34.9257 12.8216 34.9661C12.862 35.0066 12.8822 35.0673 12.8822 35.1279C12.862 35.5324 12.8418 35.8357 12.8418 36.1391C12.8418 43.4802 18.8077 49.4461 26.1487 49.4461C33.4898 49.4461 39.4557 43.4802 39.4557 36.1391C39.4557 35.8357 39.4355 35.5122 39.4152 35.1482C39.4152 35.0875 39.4355 35.0268 39.4759 34.9864C39.5164 34.9459 39.577 34.9257 39.6175 34.9257H51.2459C51.347 34.9257 51.4481 35.0066 51.4481 35.1077C51.4886 35.7549 51.529 36.402 51.529 37.0491C51.529 37.1907 51.529 37.3525 51.529 37.5143C51.3672 51.6302 39.8399 63.0159 25.7443 63.0159ZM0.465116 35.2897C0.424669 35.8762 0.404446 36.4627 0.404446 37.0491C0.283106 51.0235 11.5475 62.4901 25.5218 62.6114C25.6027 62.6114 25.6836 62.6114 25.7443 62.6114C39.6175 62.6114 50.9628 51.3875 51.0841 37.4941C51.0841 37.3525 51.0841 37.1907 51.0841 37.0491C51.0841 36.4627 51.0639 35.8762 51.0234 35.3099H39.7995C39.8197 35.5931 39.8197 35.856 39.8197 36.1189C39.8197 43.6824 33.6718 49.8303 26.1083 49.8303C18.5448 49.8303 12.3969 43.6824 12.3969 36.1189C12.3969 35.8762 12.3969 35.6133 12.4171 35.2897H0.465116Z" fill="#B7AEAE"/>
<path d="M86.1918 40.487V29.9304H90.9848C91.4903 29.9304 91.9959 29.9709 92.5015 30.0518C92.8655 30.1124 93.1891 30.2742 93.4722 30.4764C93.7149 30.6787 93.8969 30.9416 93.998 31.2449C94.1194 31.6292 94.1598 32.0134 94.1598 32.3977V33.9549C94.1598 34.9054 93.8363 35.5323 93.1689 35.7952C93.3307 35.8761 93.4925 35.957 93.6138 36.0783C93.7351 36.1996 93.8565 36.321 93.9171 36.4828C93.998 36.6648 94.0587 36.867 94.0992 37.049C94.1396 37.3119 94.1598 37.5748 94.1598 37.8377V40.4465H92.7037V38.222C92.7037 37.9389 92.6835 37.6355 92.6431 37.3524C92.6026 37.1501 92.5217 36.9681 92.4004 36.8063C92.2791 36.6648 92.097 36.5839 91.915 36.5434C91.6521 36.4828 91.3892 36.4626 91.1263 36.4626H87.6075V40.4668H86.1918V40.487ZM87.6075 31.2652V35.1076H90.7623C91.1061 35.1076 91.4297 35.0874 91.7735 35.0469C91.9757 35.0267 92.1779 34.9458 92.36 34.8245C92.5015 34.7233 92.5824 34.5818 92.6431 34.42C92.6835 34.2178 92.724 33.9953 92.7037 33.7931V32.5999C92.7037 32.3977 92.6835 32.1752 92.6431 31.973C92.6026 31.8112 92.5015 31.6696 92.3802 31.5685C92.1982 31.4472 91.9959 31.3663 91.7937 31.3461C91.4499 31.3056 91.1263 31.2854 90.7825 31.2854L87.6075 31.2652Z" fill="#1C188F"/>
<path d="M98.9932 40.5882C98.5078 40.5882 98.0225 40.5478 97.5573 40.4264C97.1933 40.3456 96.8697 40.1635 96.6068 39.9209C96.3439 39.658 96.1619 39.3344 96.081 38.9906C95.9597 38.5255 95.899 38.0603 95.9192 37.575V35.856C95.9192 35.3706 95.9597 34.9055 96.081 34.4403C96.1619 34.0965 96.3439 33.773 96.6068 33.5101C96.8697 33.2674 97.1933 33.0854 97.5573 33.0045C98.0225 32.8831 98.4876 32.8427 98.973 32.8427H99.4785C99.9639 32.8225 100.449 32.8831 100.914 33.0045C101.642 33.1663 102.209 33.7325 102.391 34.4606C102.512 34.9257 102.552 35.3908 102.552 35.856V37.0896H97.3147C97.3147 37.13 97.3147 37.1503 97.3147 37.1907V37.575C97.3147 37.8783 97.3349 38.1614 97.3753 38.4648C97.3955 38.667 97.4967 38.849 97.618 38.9906C97.7596 39.1322 97.9416 39.2333 98.1236 39.2535C98.4067 39.3142 98.6898 39.3344 98.973 39.3344H99.4785C99.7414 39.3344 100.004 39.3142 100.247 39.2737C100.429 39.2535 100.591 39.1726 100.732 39.0715C100.854 38.9704 100.955 38.849 101.016 38.6872C101.076 38.485 101.117 38.2626 101.137 38.0603H102.532C102.512 38.4648 102.431 38.849 102.29 39.2333C102.168 39.5366 101.986 39.7995 101.723 40.022C101.46 40.2242 101.137 40.386 100.813 40.4467C100.368 40.5478 99.9235 40.5882 99.4785 40.5882H98.9932ZM97.3349 35.856H101.177V35.7144C101.177 35.4515 101.157 35.1684 101.117 34.9055C101.056 34.5212 100.732 34.2179 100.348 34.1572C100.065 34.1168 99.7819 34.0763 99.4988 34.0965H98.9932C98.7303 34.0965 98.4472 34.1168 98.1843 34.1572C98.0022 34.1977 97.8202 34.2786 97.6787 34.3999C97.5371 34.5415 97.4562 34.7032 97.4158 34.8853C97.3551 35.1482 97.3349 35.4313 97.3551 35.7144L97.3349 35.856Z" fill="#1C188F"/>
<path d="M104.17 38.0604H105.546V38.3637C105.546 38.7682 105.667 39.0311 105.889 39.1726C106.132 39.3344 106.678 39.3951 107.487 39.3951C108.377 39.3951 108.943 39.3142 109.125 39.1726C109.307 39.0311 109.388 38.7479 109.388 38.303C109.388 37.8581 109.307 37.5952 109.166 37.4537C109.085 37.393 109.004 37.3525 108.903 37.3323C108.761 37.2919 108.619 37.2514 108.478 37.2514C108.296 37.2312 108.073 37.211 107.811 37.1907L106.86 37.1503C106.354 37.1301 105.95 37.1099 105.667 37.0694C105.465 37.0694 105.242 37.0087 105.06 36.9278C104.919 36.847 104.777 36.7661 104.676 36.6447C104.575 36.5234 104.474 36.3818 104.413 36.2403C104.332 36.0785 104.292 35.8965 104.271 35.7144C104.231 35.492 104.231 35.2695 104.231 35.0269C104.231 34.1775 104.453 33.591 104.898 33.2876C105.343 32.9843 106.253 32.8225 107.689 32.8225C108.801 32.8225 109.57 32.9641 109.974 33.2472C110.399 33.5505 110.622 34.1168 110.622 34.9257H109.267V34.7235C109.267 34.6022 109.246 34.4808 109.186 34.3797C109.105 34.2786 109.004 34.1977 108.882 34.1572C108.7 34.0966 108.498 34.0561 108.296 34.0359C108.033 34.0157 107.73 33.9955 107.325 33.9955C106.941 33.9955 106.658 34.0157 106.435 34.0359C106.253 34.0359 106.071 34.0966 105.91 34.1775C105.788 34.2381 105.707 34.3595 105.647 34.4808C105.606 34.6628 105.586 34.8246 105.586 35.0066C105.586 35.1886 105.586 35.3504 105.626 35.5324C105.647 35.6336 105.707 35.7144 105.808 35.7549C105.99 35.8358 106.172 35.8965 106.354 35.8965C106.698 35.9369 107.042 35.9571 107.386 35.9571C107.932 35.9571 108.458 35.9773 109.004 36.038C109.287 36.0785 109.57 36.1391 109.853 36.22C110.015 36.3009 110.177 36.402 110.318 36.5234C110.44 36.6447 110.541 36.7661 110.622 36.9278C110.702 37.0896 110.763 37.2716 110.783 37.4739C110.824 37.7166 110.844 37.939 110.844 38.1817C110.844 38.4244 110.824 38.6671 110.783 38.9097C110.763 39.0917 110.702 39.294 110.622 39.4558C110.541 39.6175 110.44 39.7591 110.318 39.8805C110.177 40.022 110.015 40.1434 109.853 40.2445C109.61 40.3658 109.327 40.4467 109.044 40.4669C108.539 40.5276 108.033 40.5478 107.527 40.5478C106.213 40.5478 105.323 40.386 104.878 40.0625C104.433 39.7389 104.211 39.1726 104.211 38.3233L104.17 38.0604Z" fill="#1C188F"/>
<path d="M115.698 40.5883C115.212 40.5883 114.727 40.5479 114.262 40.4265C113.898 40.3456 113.574 40.1636 113.311 39.9209C113.048 39.658 112.866 39.3345 112.785 38.9907C112.664 38.5255 112.603 38.0604 112.624 37.575V35.8561C112.624 35.3707 112.664 34.9056 112.785 34.4404C112.866 34.0966 113.048 33.773 113.311 33.5101C113.574 33.2675 113.898 33.0855 114.262 33.0046C114.727 32.8832 115.192 32.8428 115.677 32.8428H116.183C116.668 32.8428 117.154 32.8832 117.619 33.0046C117.983 33.0855 118.306 33.2675 118.569 33.5304C118.812 33.7933 118.994 34.1168 119.095 34.4606C119.216 34.9258 119.257 35.3909 119.257 35.8561V37.0897H114.019C114.019 37.1301 114.019 37.1503 114.019 37.1908V37.575C114.019 37.8784 114.039 38.1615 114.08 38.4649C114.1 38.6671 114.201 38.8491 114.322 38.9907C114.464 39.1322 114.646 39.2333 114.828 39.2536C115.111 39.3142 115.394 39.3345 115.677 39.3345H116.183C116.446 39.3345 116.709 39.3142 116.951 39.2738C117.133 39.2536 117.295 39.1727 117.437 39.0716C117.558 38.9704 117.659 38.8491 117.72 38.6873C117.781 38.4851 117.821 38.2626 117.841 38.0604H119.237C119.216 38.4649 119.136 38.8491 118.994 39.2333C118.873 39.5367 118.691 39.7996 118.428 40.0221C118.165 40.2243 117.841 40.3861 117.498 40.4467C117.053 40.5479 116.608 40.5883 116.163 40.5883H115.698ZM114.039 35.8561H117.882V35.7145C117.882 35.4516 117.862 35.1685 117.821 34.9056C117.781 34.7235 117.7 34.5415 117.558 34.4202C117.417 34.2989 117.235 34.1977 117.053 34.1775C116.769 34.1371 116.486 34.0966 116.223 34.1168H115.718C115.455 34.1168 115.172 34.1371 114.909 34.1775C114.727 34.218 114.545 34.2989 114.403 34.4202C114.262 34.5618 114.181 34.7235 114.14 34.9056C114.08 35.1685 114.06 35.4516 114.08 35.7347L114.039 35.8561Z" fill="#1C188F"/>
<path d="M126.012 39.9816C125.769 40.2041 125.486 40.3658 125.162 40.4467C124.717 40.5479 124.272 40.6085 123.807 40.5883C123.322 40.5883 122.816 40.5479 122.331 40.467C121.987 40.4063 121.684 40.2647 121.401 40.0625C121.178 39.8603 120.996 39.5974 120.935 39.3142C120.834 38.93 120.794 38.5458 120.794 38.1413C120.774 37.7166 120.834 37.2919 120.935 36.8672C121.016 36.5841 121.178 36.3212 121.421 36.119C121.684 35.9369 122.007 35.8156 122.331 35.7752C122.796 35.7145 123.281 35.674 123.747 35.6943C124.191 35.6943 124.657 35.7145 125.101 35.8156C125.405 35.8763 125.668 35.9976 125.91 36.1796V35.2696C125.91 35.0471 125.89 34.8044 125.85 34.582C125.809 34.4202 125.728 34.2786 125.587 34.1977C125.405 34.0966 125.203 34.036 125 34.036C124.737 34.0157 124.394 33.9955 123.969 33.9955C123.666 33.9955 123.423 33.9955 123.221 34.0157C123.059 34.0359 122.897 34.0764 122.756 34.1573C122.634 34.218 122.553 34.3393 122.513 34.4606C122.452 34.6426 122.432 34.8247 122.432 35.0067H121.077V34.7033C121.077 34.4202 121.117 34.1168 121.239 33.8539C121.34 33.6113 121.502 33.409 121.724 33.2675C121.987 33.1057 122.29 32.9843 122.594 32.9439C123.018 32.863 123.463 32.8428 123.908 32.8428C124.313 32.8428 124.657 32.8428 124.96 32.863C125.223 32.8832 125.466 32.9034 125.728 32.9439C125.91 32.9641 126.092 33.0248 126.274 33.0855C126.416 33.1259 126.537 33.2068 126.638 33.2877C126.74 33.3686 126.841 33.4697 126.942 33.5708C127.023 33.6719 127.104 33.7933 127.144 33.9348C127.205 34.1168 127.245 34.2786 127.245 34.4606C127.265 34.6831 127.286 34.946 127.286 35.2696V40.4872H126.032L126.012 39.9816ZM125.91 37.7368C125.91 37.4335 125.708 37.1706 125.425 37.0694C125.101 36.9279 124.576 36.8672 123.848 36.8672C123.585 36.8672 123.322 36.8874 123.059 36.9077C122.877 36.9279 122.715 36.9886 122.553 37.0694C122.432 37.1503 122.331 37.2717 122.29 37.4132C122.23 37.5953 122.21 37.7975 122.21 37.9997C122.21 38.2222 122.23 38.4446 122.27 38.6671C122.311 38.8289 122.412 38.9704 122.533 39.0716C122.695 39.1727 122.877 39.2333 123.079 39.2738C123.362 39.3142 123.666 39.3345 123.949 39.3142C124.454 39.3345 124.94 39.2738 125.405 39.112C125.728 38.9704 125.91 38.7682 125.91 38.5053V37.7368Z" fill="#1C188F"/>
<path d="M129.369 40.4872V32.9439H130.683V33.5506C130.865 33.3079 131.108 33.1057 131.411 33.0046C131.775 32.8832 132.159 32.8428 132.544 32.8428C132.908 32.8428 133.272 32.8832 133.616 32.9843C133.899 33.0652 134.141 33.2472 134.323 33.4697C134.526 33.7124 134.667 34.0157 134.728 34.3191C134.809 34.7438 134.849 35.1685 134.849 35.5931V35.7954H133.474V35.4314C133.474 35.2089 133.454 34.9864 133.413 34.764C133.393 34.6224 133.332 34.4809 133.231 34.3595C133.13 34.2584 133.009 34.1775 132.867 34.1573C132.685 34.1168 132.483 34.0966 132.281 34.0966C132.038 34.0966 131.795 34.1371 131.573 34.218C131.371 34.2989 131.209 34.4202 131.088 34.582C130.946 34.764 130.845 34.9864 130.804 35.2089C130.744 35.5123 130.703 35.8156 130.724 36.1392V40.4872H129.369Z" fill="#1C188F"/>
<path d="M138.975 40.5883C138.489 40.5883 138.024 40.5479 137.539 40.4265C137.175 40.3456 136.851 40.1636 136.588 39.9209C136.325 39.658 136.143 39.3345 136.063 38.9907C135.941 38.5255 135.881 38.0604 135.901 37.575V35.8561C135.901 35.3707 135.941 34.9056 136.063 34.4404C136.143 34.0966 136.325 33.773 136.588 33.5101C136.851 33.2675 137.175 33.0855 137.539 33.0046C138.004 32.8832 138.469 32.8428 138.954 32.8428H139.46C139.925 32.8428 140.37 32.8832 140.835 33.0046C141.179 33.0855 141.503 33.2675 141.786 33.4899C142.049 33.7326 142.231 34.0359 142.352 34.3595C142.494 34.7842 142.554 35.2089 142.554 35.6538H141.179C141.179 35.3909 141.139 35.128 141.078 34.8651C141.037 34.6831 140.936 34.5213 140.815 34.4C140.673 34.2786 140.491 34.1977 140.309 34.1775C140.047 34.1371 139.763 34.1168 139.48 34.1168H138.975C138.287 34.1168 137.822 34.2382 137.62 34.4606C137.418 34.6831 137.316 35.2291 137.316 36.119V37.3526C137.316 38.2424 137.418 38.8087 137.62 39.0311C137.822 39.2536 138.267 39.3547 138.975 39.3547H139.48C139.763 39.3547 140.047 39.3345 140.309 39.294C140.512 39.2738 140.673 39.1929 140.835 39.0513C140.977 38.93 141.058 38.748 141.098 38.566C141.159 38.3233 141.179 38.0604 141.159 37.7975V37.5346H142.554V37.8177C142.574 38.2424 142.514 38.6873 142.372 39.0918C142.271 39.4154 142.089 39.7187 141.826 39.9614C141.563 40.2041 141.22 40.3659 140.876 40.467C140.431 40.5883 139.945 40.6288 139.48 40.6288H138.975V40.5883Z" fill="#1C188F"/>
<path d="M144.415 40.487V29.9304H145.729V33.5908C146.154 33.0853 146.902 32.8426 147.974 32.8426C148.399 32.8426 148.823 32.883 149.248 32.9841C149.895 33.1459 150.401 33.6515 150.563 34.3189C150.664 34.7436 150.704 35.1683 150.704 35.5929V40.5072H149.349V35.7952C149.349 35.5121 149.329 35.2087 149.289 34.9256C149.268 34.7436 149.188 34.5616 149.066 34.3998C148.945 34.2582 148.783 34.1773 148.601 34.1369C148.358 34.0762 148.095 34.056 147.853 34.056C147.145 34.056 146.619 34.2178 146.296 34.5413C145.972 34.8649 145.79 35.3907 145.79 36.0783V40.4465H144.415V40.487Z" fill="#1C188F"/>
<path d="M157.803 40.487V29.9304H159.218V40.487H157.803Z" fill="#1C188F"/>
<path d="M161.463 40.4872V32.9439H162.778V33.591C163.202 33.0855 163.951 32.8428 165.022 32.8428C165.447 32.8428 165.872 32.8832 166.296 32.9843C166.944 33.1461 167.449 33.6517 167.611 34.3191C167.712 34.7438 167.753 35.1685 167.753 35.5931V40.4872H166.398V35.7954C166.398 35.5123 166.377 35.2089 166.337 34.9258C166.317 34.7235 166.236 34.5618 166.094 34.4C165.973 34.2584 165.811 34.1775 165.629 34.1371C165.386 34.0764 165.123 34.0562 164.881 34.0562C164.173 34.0562 163.647 34.218 163.324 34.5415C163 34.8651 162.818 35.3909 162.818 36.0785V40.4467H161.463V40.4872Z" fill="#1C188F"/>
<path d="M169.593 38.0604H170.968V38.3637C170.968 38.7682 171.089 39.0311 171.312 39.1726C171.555 39.3344 172.101 39.3951 172.909 39.3951C173.799 39.3951 174.366 39.3142 174.548 39.1726C174.73 39.0311 174.81 38.7479 174.81 38.303C174.81 37.8581 174.73 37.5952 174.588 37.4537C174.507 37.393 174.426 37.3525 174.325 37.3323C174.184 37.2919 174.042 37.2514 173.9 37.2514C173.718 37.2312 173.496 37.211 173.233 37.1907L172.283 37.1503C171.777 37.1301 171.372 37.1099 171.089 37.0694C170.887 37.0694 170.665 37.0087 170.483 36.9278C170.341 36.847 170.2 36.7661 170.098 36.6447C169.997 36.5234 169.896 36.3818 169.836 36.2403C169.755 36.0785 169.714 35.8965 169.694 35.7144C169.654 35.492 169.654 35.2695 169.654 35.0269C169.654 34.1775 169.876 33.591 170.321 33.2876C170.766 32.9843 171.676 32.8225 173.112 32.8225C174.224 32.8225 174.992 32.9641 175.397 33.2472C175.822 33.5505 176.044 34.1168 176.044 34.9257H174.689V34.7235C174.689 34.6022 174.669 34.4808 174.608 34.3797C174.527 34.2786 174.426 34.1977 174.305 34.1572C174.103 34.0966 173.921 34.0561 173.718 34.0359C173.476 34.0157 173.152 33.9955 172.748 33.9955C172.363 33.9955 172.08 34.0157 171.858 34.0359C171.676 34.0359 171.494 34.0966 171.332 34.1775C171.211 34.2381 171.13 34.3595 171.089 34.4808C171.049 34.6628 171.029 34.8246 171.029 35.0066C171.029 35.1886 171.029 35.3504 171.069 35.5324C171.089 35.6336 171.15 35.7144 171.251 35.7549C171.433 35.8358 171.615 35.8965 171.797 35.8965C172.141 35.9369 172.485 35.9571 172.829 35.9571C173.375 35.9571 173.9 35.9773 174.446 36.038C174.73 36.0785 175.013 36.1391 175.296 36.22C175.458 36.3009 175.619 36.402 175.761 36.5234C175.882 36.6447 175.983 36.7661 176.064 36.9278C176.145 37.0896 176.206 37.2716 176.226 37.4739C176.267 37.7166 176.287 37.939 176.287 38.1817C176.287 38.4244 176.267 38.6671 176.226 38.9097C176.206 39.0917 176.145 39.294 176.064 39.4558C175.983 39.6175 175.882 39.7591 175.761 39.8805C175.619 40.022 175.458 40.1434 175.296 40.2445C175.053 40.3658 174.77 40.4467 174.487 40.4669C173.981 40.5276 173.476 40.5478 172.97 40.5478C171.656 40.5478 170.766 40.386 170.321 40.0625C169.876 39.7389 169.654 39.1726 169.654 38.3233L169.593 38.0604Z" fill="#1C188F"/>
<path d="M177.601 34.1167V32.9235H178.491V31.2854H179.846V32.9235H183.426V34.1167H179.846V37.9995C179.846 38.5456 179.927 38.9096 180.089 39.0916C180.251 39.2736 180.574 39.3545 181.059 39.3545C181.262 39.3545 181.464 39.3343 181.666 39.2938C181.808 39.2736 181.929 39.1927 182.03 39.0916C182.131 38.9703 182.192 38.8287 182.212 38.6871C182.253 38.4647 182.273 38.2422 182.253 38.0198V37.6557H183.628V37.858C183.628 38.3029 183.587 38.7478 183.506 39.1927C183.385 39.8399 182.88 40.3657 182.232 40.487C181.787 40.5881 181.322 40.6286 180.857 40.6083C180.473 40.6083 180.109 40.5679 179.745 40.4668C179.462 40.3859 179.199 40.2241 179.017 40.0017C178.815 39.759 178.673 39.4556 178.612 39.1523C178.532 38.7276 178.491 38.3029 178.491 37.858V34.1369H177.601V34.1167Z" fill="#1C188F"/>
<path d="M185.468 31.4069V29.9104H186.823V31.4069H185.468ZM185.468 40.4872V32.9237H186.823V40.467L185.468 40.4872Z" fill="#1C188F"/>
<path d="M188.198 34.1167V32.9235H189.088V31.2854H190.443V32.9235H194.002V34.1167H190.423V37.9995C190.423 38.5456 190.504 38.9096 190.665 39.0916C190.827 39.2736 191.151 39.3545 191.636 39.3545C191.838 39.3545 192.041 39.3343 192.243 39.2938C192.384 39.2736 192.506 39.1927 192.607 39.0916C192.708 38.9703 192.769 38.8287 192.789 38.6871C192.829 38.4647 192.829 38.2422 192.829 38.0198V37.6557H194.205V37.858C194.205 38.3029 194.164 38.7478 194.083 39.1927C193.982 39.8399 193.456 40.3657 192.809 40.487C192.364 40.5881 191.899 40.6286 191.434 40.6083C191.05 40.6083 190.686 40.5679 190.322 40.4668C190.039 40.3859 189.776 40.2241 189.594 40.0017C189.391 39.759 189.25 39.4556 189.189 39.1523C189.108 38.7276 189.068 38.3029 189.068 37.858V34.1369H188.198V34.1167Z" fill="#1C188F"/>
<path d="M202.334 32.9236V40.4669H201.02V39.84C200.777 40.1029 200.474 40.3051 200.13 40.4062C199.26 40.6287 198.371 40.6489 197.501 40.4265C196.854 40.2647 196.348 39.7591 196.187 39.1119C196.085 38.6872 196.045 38.2626 196.045 37.8379V32.9236H197.4V37.6154C197.4 37.8985 197.42 38.2019 197.461 38.485C197.481 38.6872 197.562 38.8693 197.683 39.0108C197.804 39.1524 197.966 39.2333 198.148 39.2737C198.391 39.3142 198.654 39.3546 198.917 39.3344C199.624 39.3344 200.15 39.1726 200.474 38.849C200.797 38.5255 200.959 37.9996 200.959 37.3121V32.9438H202.334V32.9236Z" fill="#1C188F"/>
<path d="M203.77 34.1167V32.9235H204.66V31.2854H206.015V32.9235H209.574V34.1167H205.995V37.9995C205.995 38.5456 206.076 38.9096 206.238 39.0916C206.399 39.2736 206.723 39.3545 207.208 39.3545C207.41 39.3545 207.613 39.3343 207.815 39.2938C207.956 39.2736 208.078 39.1927 208.179 39.0916C208.28 38.9703 208.341 38.8287 208.361 38.6871C208.401 38.4647 208.422 38.2422 208.401 38.0198V37.6557H209.777V37.858C209.777 38.3029 209.736 38.7478 209.655 39.1927C209.595 39.5163 209.453 39.7994 209.231 40.0421C208.988 40.2646 208.705 40.4263 208.381 40.487C207.936 40.5881 207.471 40.6286 207.006 40.6083C206.622 40.6083 206.258 40.5679 205.894 40.4668C205.611 40.3859 205.348 40.2241 205.166 40.0017C204.963 39.759 204.822 39.4556 204.761 39.1523C204.68 38.7276 204.64 38.3029 204.64 37.858V34.1369H203.77V34.1167Z" fill="#1C188F"/>
<path d="M211.617 31.4069V29.9104H212.972V31.4069H211.617ZM211.617 40.4872V32.9237H212.972V40.467L211.617 40.4872Z" fill="#1C188F"/>
<path d="M217.866 40.5883C217.381 40.5883 216.895 40.5479 216.43 40.4265C216.066 40.3456 215.742 40.1636 215.48 39.9209C215.217 39.658 215.035 39.3345 214.954 38.9907C214.832 38.5255 214.772 38.0604 214.792 37.575V35.8561C214.792 35.3707 214.832 34.9056 214.954 34.4404C215.035 34.0966 215.217 33.773 215.48 33.5101C215.742 33.2675 216.066 33.0855 216.43 33.0046C216.895 32.8832 217.36 32.8428 217.846 32.8428H218.351C218.837 32.8428 219.322 32.8832 219.787 33.0046C220.151 33.0855 220.475 33.2675 220.738 33.5304C220.98 33.7933 221.162 34.1168 221.263 34.4606C221.385 34.9258 221.425 35.3909 221.425 35.8561V37.575C221.425 38.0604 221.385 38.5255 221.263 38.9907C221.183 39.3345 221.001 39.658 220.738 39.9209C220.475 40.1636 220.151 40.3456 219.787 40.4265C219.322 40.5479 218.857 40.5883 218.372 40.5883H217.866ZM220.03 36.0987C220.03 35.2291 219.929 34.6629 219.727 34.4404C219.504 34.218 219.059 34.0966 218.351 34.0966H217.866C217.178 34.0966 216.713 34.1977 216.511 34.4404C216.309 34.6831 216.208 35.2089 216.208 36.0987V37.3324C216.208 38.2222 216.309 38.7884 216.511 39.0109C216.713 39.2333 217.158 39.3345 217.866 39.3345H218.372C219.059 39.3345 219.524 39.2131 219.747 38.9907C219.949 38.7682 220.05 38.202 220.05 37.3324L220.03 36.0987Z" fill="#1C188F"/>
<path d="M223.326 40.4872V32.9439H224.641V33.591C225.065 33.0855 225.814 32.8428 226.886 32.8428C227.31 32.8428 227.735 32.8832 228.16 32.9843C228.807 33.1461 229.312 33.6517 229.474 34.3191C229.575 34.7438 229.616 35.1685 229.616 35.5931V40.4872H228.261V35.7954C228.261 35.5123 228.24 35.2089 228.2 34.9258C228.18 34.7438 228.099 34.5618 227.978 34.4C227.856 34.2584 227.694 34.1775 227.512 34.1371C227.27 34.0764 227.007 34.0562 226.764 34.0562C226.056 34.0562 225.531 34.218 225.207 34.5415C224.883 34.8651 224.701 35.3909 224.701 36.0785V40.4467H223.326V40.4872Z" fill="#1C188F"/>
<path d="M58.6072 56.9691C58.1218 56.9691 57.6365 56.9287 57.1713 56.8073C56.8073 56.7264 56.4837 56.5444 56.2208 56.3017C55.9579 56.0388 55.7759 55.7152 55.695 55.3715C55.5737 54.9063 55.513 54.4412 55.5333 53.9558V52.2368C55.5333 51.7515 55.5737 51.2863 55.695 50.8212C55.7759 50.4774 55.9579 50.1538 56.2208 49.8909C56.4837 49.6482 56.8073 49.4662 57.1713 49.3853C57.6365 49.264 58.1016 49.2236 58.587 49.2236H59.0926C59.5779 49.2033 60.0633 49.264 60.5284 49.3853C60.8924 49.4662 61.216 49.6483 61.4789 49.9112C61.7418 50.1741 61.9036 50.4976 62.0047 50.8414C62.1261 51.3066 62.1665 51.7717 62.1665 52.2368V53.9558C62.1665 54.4412 62.1261 54.9063 62.0047 55.3715C61.9036 55.7152 61.7418 56.0388 61.4789 56.3017C61.216 56.5444 60.8924 56.7264 60.5284 56.8073C60.0633 56.9287 59.5981 56.9691 59.1128 56.9691H58.6072ZM60.7711 52.4593C60.7711 51.5897 60.67 51.0234 60.4677 50.8212C60.2655 50.5987 59.8004 50.4774 59.0926 50.4774H58.587C57.8792 50.4774 57.4342 50.5785 57.232 50.801C57.0298 51.0234 56.9287 51.5695 56.9287 52.4593V53.6929C56.9287 54.5827 57.0298 55.149 57.232 55.3715C57.4342 55.5939 57.8994 55.695 58.587 55.695H59.0926C59.8004 55.695 60.2453 55.5737 60.4677 55.3512C60.67 55.1288 60.7913 54.5625 60.7711 53.6929V52.4593Z" fill="#1C188F"/>
<path d="M62.7935 50.4977V49.3045H63.8046C63.8046 49.2641 63.8046 49.2034 63.8046 49.163C63.8046 49.1225 63.8046 49.0416 63.8046 48.9607C63.8046 48.5563 63.8451 48.1518 63.926 47.7473C63.9866 47.444 64.1282 47.1609 64.3102 46.9182C64.4922 46.6957 64.7551 46.5339 65.018 46.4531C65.3618 46.3519 65.746 46.2913 66.1101 46.3115C66.5145 46.3115 66.9594 46.3317 67.4448 46.3722V47.6462C67.3841 47.626 67.3032 47.6058 67.2426 47.6058H67.1617C66.9999 47.6058 66.8381 47.6058 66.6965 47.6058C66.555 47.6058 66.4336 47.5856 66.3932 47.5856C66.1707 47.5856 65.9483 47.6058 65.7461 47.6462C65.6045 47.6665 65.4831 47.7271 65.382 47.808C65.2405 47.9496 65.1596 48.3338 65.1596 48.9607V49.3248H67.465V50.5179H65.1798V56.8681H63.8248V50.5179H62.7935V50.4977Z" fill="#1C188F"/>
<path d="M72.6624 56.8681V46.3115H74.078V56.8681H72.6624Z" fill="#1C188F"/>
<path d="M75.9184 56.8681V49.3247H77.2329V49.9719C77.6576 49.4663 78.4059 49.2236 79.4777 49.2236C79.9024 49.2236 80.3271 49.2641 80.7518 49.3652C81.0753 49.4461 81.3585 49.6079 81.6011 49.8506C81.8236 50.0932 81.9854 50.3764 82.0663 50.6999C82.1674 51.1246 82.2078 51.5493 82.2078 51.974V56.8883H80.8529V52.1762C80.8529 51.8931 80.8327 51.5898 80.7922 51.3066C80.772 51.1246 80.6911 50.9426 80.5698 50.7808C80.4484 50.6393 80.2866 50.5584 80.1046 50.5179C79.8619 50.4573 79.599 50.437 79.3564 50.437C78.6485 50.437 78.1227 50.5988 77.7992 50.9224C77.4756 51.246 77.2936 51.7718 77.2936 52.4594V56.8276H75.9184V56.8681Z" fill="#1C188F"/>
<path d="M83.1381 50.4975V49.3044H84.0279V47.6663H85.4031V49.3044H88.9624V50.4975H85.4031V54.3804C85.4031 54.9264 85.484 55.2905 85.6458 55.4522C85.8076 55.6343 86.1312 55.7151 86.6165 55.7151C86.8188 55.7151 87.021 55.6949 87.2232 55.6545C87.3648 55.6343 87.4861 55.5534 87.5873 55.4522C87.6884 55.3309 87.749 55.1893 87.7693 55.0478C87.8097 54.8253 87.8097 54.6029 87.8097 54.3804V54.0164H89.1849V54.2186C89.1849 54.6635 89.1445 55.1084 89.0636 55.5331C89.0029 55.8567 88.8613 56.1398 88.6389 56.3825C88.3962 56.605 88.1131 56.7668 87.7895 56.8274C87.3446 56.9285 86.8794 56.969 86.4143 56.9488C86.0301 56.9488 85.666 56.9083 85.302 56.8072C85.0189 56.7263 84.756 56.5645 84.574 56.3421C84.3717 56.0994 84.2302 55.8163 84.1695 55.4927C84.0886 55.068 84.0482 54.6433 84.0482 54.1984V50.4773H83.1381V50.4975Z" fill="#1C188F"/>
<path d="M93.4116 56.9691C92.9262 56.9691 92.4409 56.9286 91.9757 56.8073C91.6117 56.7264 91.2881 56.5444 91.0252 56.3017C90.7623 56.0388 90.5803 55.7152 90.4994 55.3714C90.3781 54.9063 90.3174 54.4412 90.3376 53.9558V52.2368C90.3376 51.7515 90.3781 51.2863 90.4994 50.8212C90.5803 50.4774 90.7623 50.1538 91.0252 49.8909C91.2881 49.6482 91.6117 49.4662 91.9757 49.3853C92.4409 49.264 92.906 49.2236 93.3913 49.2236H93.8969C94.3823 49.2033 94.8676 49.264 95.3328 49.3853C95.6968 49.4662 96.0204 49.6483 96.2833 49.9112C96.5462 50.1741 96.708 50.4976 96.8091 50.8414C96.9304 51.3066 96.9709 51.7717 96.9709 52.2368V53.4705H91.733C91.733 53.5109 91.733 53.5311 91.733 53.5716V53.9558C91.733 54.2592 91.7533 54.5423 91.7937 54.8456C91.8139 55.0479 91.915 55.2299 92.0364 55.3917C92.178 55.5332 92.36 55.6141 92.542 55.6546C92.8251 55.7153 93.1082 55.7355 93.3913 55.7355H93.8969C94.1598 55.7355 94.4227 55.7152 94.6654 55.6748C94.8474 55.6546 95.0092 55.5939 95.171 55.4928C95.2923 55.3917 95.3935 55.2703 95.4541 55.1085C95.5148 54.9063 95.5552 54.6839 95.5755 54.4816H96.9709C96.9506 54.8861 96.8698 55.2703 96.7282 55.6546C96.6068 55.9579 96.4248 56.2208 96.1619 56.4433C95.899 56.6455 95.5755 56.8073 95.2317 56.868C94.7868 56.9691 94.3418 57.0095 93.8969 57.0095L93.4116 56.9691ZM91.7533 52.2368H95.5957V52.0953C95.5957 51.8324 95.5755 51.5492 95.535 51.2863C95.4946 51.1043 95.4137 50.9223 95.2721 50.7808C95.1306 50.6594 94.9485 50.5583 94.7665 50.5381C94.4834 50.4976 94.2003 50.4572 93.9172 50.4774H93.4116C93.1487 50.4774 92.8655 50.4976 92.6026 50.5381C92.4206 50.5785 92.2386 50.6594 92.0971 50.7808C91.9555 50.9223 91.8746 51.0841 91.8342 51.2661C91.7735 51.529 91.7533 51.8121 91.7735 52.0953L91.7533 52.2368Z" fill="#1C188F"/>
<path d="M98.4269 56.8681V49.3247H99.7617V49.9314C99.9437 49.6888 100.186 49.4865 100.49 49.3854C100.854 49.2641 101.238 49.2236 101.622 49.2236C101.986 49.2236 102.35 49.2641 102.694 49.3652C102.977 49.4461 103.22 49.6281 103.402 49.8506C103.604 50.0932 103.746 50.3966 103.806 50.6999C103.887 51.1246 103.928 51.5493 103.928 51.974V52.1762H102.573V51.8324C102.573 51.61 102.552 51.3875 102.512 51.1651C102.492 51.0235 102.431 50.8819 102.33 50.7606C102.229 50.6595 102.108 50.5786 101.966 50.5584C101.784 50.5179 101.582 50.4977 101.38 50.4977C101.137 50.4977 100.894 50.5382 100.672 50.619C100.469 50.6797 100.308 50.8011 100.166 50.9628C100.025 51.1449 99.9235 51.3673 99.883 51.5898C99.8223 51.8931 99.7819 52.1965 99.8021 52.52V56.8883H98.4269V56.8681Z" fill="#1C188F"/>
<path d="M104.838 56.8681V49.3247H106.152V49.9719C106.577 49.4663 107.325 49.2236 108.397 49.2236C108.822 49.2236 109.246 49.2641 109.671 49.3652C110.318 49.527 110.824 50.0326 110.986 50.6999C111.087 51.1246 111.127 51.5493 111.127 51.974V56.8883H109.772V52.1762C109.772 51.8931 109.752 51.5898 109.712 51.3066C109.691 51.1246 109.61 50.9426 109.489 50.7808C109.368 50.6393 109.206 50.5584 109.024 50.5179C108.781 50.4573 108.518 50.437 108.276 50.437C107.568 50.437 107.042 50.5988 106.719 50.9224C106.395 51.246 106.213 51.7718 106.213 52.4594V56.8276H104.838V56.8681Z" fill="#1C188F"/>
<path d="M117.659 56.3625C117.417 56.585 117.133 56.7468 116.81 56.8277C116.365 56.9288 115.92 56.9894 115.455 56.9692C114.97 56.9692 114.464 56.9288 113.979 56.8479C113.635 56.7872 113.332 56.6456 113.048 56.4434C112.826 56.2412 112.644 55.9783 112.583 55.6951C112.482 55.3109 112.442 54.9267 112.442 54.5222C112.421 54.0975 112.482 53.6728 112.583 53.2481C112.664 52.965 112.826 52.7021 113.069 52.5201C113.332 52.3381 113.655 52.2167 113.979 52.1763C114.444 52.1156 114.929 52.0954 115.394 52.0954C115.839 52.0752 116.304 52.1156 116.749 52.2167C117.053 52.2774 117.316 52.3987 117.558 52.5807V51.6707C117.558 51.4482 117.538 51.2056 117.498 50.9831C117.457 50.8213 117.376 50.6798 117.235 50.5989C117.053 50.4977 116.85 50.4371 116.648 50.4371C116.385 50.4168 116.041 50.3966 115.617 50.3966C115.313 50.3966 115.071 50.3966 114.868 50.4169C114.707 50.4169 114.545 50.4775 114.403 50.5584C114.282 50.6191 114.201 50.7404 114.161 50.8618C114.1 51.0438 114.08 51.2258 114.08 51.4078H112.745V51.1044C112.745 50.8213 112.785 50.518 112.907 50.2551C113.008 50.0124 113.17 49.8102 113.392 49.6686C113.655 49.5068 113.958 49.3855 114.262 49.345C114.686 49.2641 115.131 49.2439 115.576 49.2439C115.981 49.2439 116.325 49.2439 116.628 49.2641C116.891 49.2641 117.133 49.3046 117.396 49.345C117.578 49.3652 117.76 49.4057 117.942 49.4866C118.084 49.527 118.205 49.6079 118.306 49.6888C118.408 49.7697 118.509 49.8708 118.61 49.9922C118.691 50.0933 118.772 50.2146 118.812 50.3562C118.873 50.5382 118.913 50.7 118.913 50.882C118.933 51.1449 118.954 51.428 118.954 51.6909V56.9085H117.7L117.659 56.3625ZM117.558 54.1177C117.558 53.8144 117.356 53.5515 117.073 53.4503C116.749 53.3088 116.223 53.2481 115.495 53.2481C115.232 53.2481 114.97 53.2683 114.707 53.2886C114.525 53.3088 114.363 53.3695 114.201 53.4503C114.08 53.5312 113.979 53.6526 113.938 53.7941C113.878 53.9762 113.857 54.1784 113.857 54.3806C113.857 54.6031 113.878 54.8255 113.918 55.048C113.958 55.2098 114.06 55.3513 114.181 55.4525C114.343 55.5536 114.525 55.6345 114.707 55.6547C114.99 55.6951 115.293 55.7154 115.576 55.7154C116.082 55.7356 116.567 55.6749 117.032 55.5131C117.356 55.3716 117.538 55.1693 117.538 54.9064L117.558 54.1177Z" fill="#1C188F"/>
<path d="M119.864 50.4975V49.3044H120.753V47.6663H122.108V49.3044H125.668V50.4975H122.108V54.3804C122.108 54.9264 122.189 55.2905 122.351 55.4522C122.513 55.6343 122.836 55.7151 123.322 55.7151C123.524 55.7151 123.726 55.6949 123.929 55.6545C124.07 55.6343 124.191 55.5534 124.293 55.4522C124.394 55.3309 124.454 55.1893 124.475 55.0478C124.515 54.8253 124.515 54.6029 124.515 54.3804V54.0164H125.89V54.2186C125.89 54.6635 125.85 55.1084 125.769 55.5331C125.708 55.8567 125.567 56.1398 125.344 56.3825C125.101 56.605 124.818 56.7668 124.495 56.8274C124.05 56.9285 123.585 56.969 123.12 56.9488C122.735 56.9488 122.371 56.9083 122.007 56.8072C121.724 56.7263 121.461 56.5645 121.279 56.3421C121.077 56.0994 120.935 55.8163 120.875 55.4927C120.794 55.068 120.753 54.6433 120.753 54.1984V50.4773H119.864V50.4975Z" fill="#1C188F"/>
<path d="M127.306 47.7878V46.2913H128.641V47.7878H127.306ZM127.306 56.8681V49.3045H128.641V56.8478L127.306 56.8681Z" fill="#1C188F"/>
<path d="M133.13 56.9691C132.645 56.9691 132.159 56.9287 131.694 56.8073C131.33 56.7264 131.007 56.5444 130.744 56.3017C130.481 56.0388 130.299 55.7152 130.218 55.3715C130.097 54.9063 130.036 54.4412 130.056 53.9558V52.2368C130.056 51.7515 130.097 51.2863 130.218 50.8212C130.299 50.4774 130.481 50.1538 130.744 49.8909C131.007 49.6482 131.33 49.4662 131.694 49.3853C132.159 49.264 132.625 49.2236 133.11 49.2236H133.616C134.101 49.2033 134.586 49.264 135.051 49.3853C135.415 49.4662 135.739 49.6483 136.002 49.9112C136.245 50.1741 136.427 50.4976 136.528 50.8414C136.649 51.3066 136.689 51.7717 136.689 52.2368V53.9558C136.689 54.4412 136.649 54.9063 136.528 55.3715C136.447 55.7152 136.265 56.0388 136.002 56.3017C135.739 56.5444 135.415 56.7264 135.051 56.8073C134.586 56.9287 134.121 56.9691 133.636 56.9691H133.13ZM135.294 52.4593C135.294 51.5897 135.193 51.0437 134.971 50.8212C134.768 50.5987 134.303 50.4774 133.595 50.4774H133.09C132.402 50.4774 131.937 50.5785 131.735 50.801C131.533 51.0234 131.431 51.5695 131.431 52.4593V53.6929C131.431 54.5827 131.533 55.149 131.735 55.3715C131.937 55.5939 132.382 55.695 133.09 55.695H133.595C134.303 55.695 134.748 55.5737 134.971 55.3512C135.173 55.1288 135.274 54.5827 135.274 53.6929V52.4593H135.294Z" fill="#1C188F"/>
<path d="M138.166 56.8681V49.3247H139.48V49.9719C139.905 49.4663 140.653 49.2236 141.725 49.2236C142.15 49.2236 142.574 49.2641 142.999 49.3652C143.646 49.527 144.152 50.0326 144.314 50.6999C144.415 51.1246 144.455 51.5493 144.455 51.974V56.8883H143.1V52.1762C143.1 51.8931 143.08 51.5898 143.04 51.3066C143.019 51.1246 142.938 50.9426 142.817 50.7808C142.696 50.6393 142.534 50.5584 142.352 50.5179C142.109 50.4573 141.846 50.437 141.604 50.437C140.896 50.437 140.37 50.5988 140.047 50.9224C139.723 51.246 139.541 51.7718 139.541 52.4594V56.8276H138.166V56.8681Z" fill="#1C188F"/>
<path d="M150.987 56.3625C150.745 56.585 150.462 56.7468 150.138 56.8277C149.693 56.9288 149.248 56.9894 148.783 56.9692C148.298 56.9692 147.792 56.9288 147.307 56.8479C146.963 56.7872 146.66 56.6456 146.397 56.4434C146.174 56.2412 145.992 55.9783 145.911 55.6951C145.81 55.3109 145.77 54.9267 145.77 54.5222C145.75 54.0975 145.81 53.6728 145.911 53.2481C145.992 52.965 146.154 52.7021 146.397 52.5201C146.66 52.3381 146.983 52.2167 147.307 52.1763C147.772 52.1156 148.257 52.0954 148.722 52.0954C149.167 52.0752 149.632 52.1156 150.077 52.2167C150.381 52.2774 150.644 52.3987 150.886 52.5807V51.6707C150.886 51.4482 150.866 51.2056 150.826 50.9831C150.785 50.8213 150.684 50.6798 150.563 50.5989C150.381 50.4977 150.178 50.4371 149.976 50.4371C149.713 50.4168 149.37 50.3966 148.945 50.3966C148.641 50.3966 148.399 50.3966 148.197 50.4169C148.035 50.4169 147.873 50.4775 147.731 50.5584C147.61 50.6191 147.529 50.7404 147.489 50.8618C147.428 51.0438 147.408 51.2258 147.408 51.4078H146.053V51.1044C146.053 50.8213 146.093 50.518 146.215 50.2551C146.316 50.0124 146.478 49.8102 146.7 49.6686C146.963 49.5068 147.266 49.3855 147.57 49.345C147.994 49.2641 148.439 49.2439 148.884 49.2439C149.289 49.2439 149.632 49.2439 149.936 49.2641C150.199 49.2641 150.441 49.3046 150.704 49.345C150.886 49.3652 151.068 49.4057 151.25 49.4866C151.392 49.527 151.513 49.6079 151.614 49.6888C151.715 49.7697 151.817 49.8708 151.918 49.9922C151.999 50.0933 152.079 50.2146 152.12 50.3562C152.181 50.5382 152.201 50.7 152.221 50.882C152.241 51.1449 152.261 51.428 152.261 51.6909V56.9085H151.008L150.987 56.3625ZM150.886 54.1177C150.886 53.8144 150.684 53.5515 150.401 53.4503C150.077 53.3088 149.552 53.2481 148.823 53.2481C148.561 53.2481 148.298 53.2683 148.035 53.2886C147.853 53.3088 147.691 53.3695 147.529 53.4503C147.408 53.5312 147.307 53.6526 147.266 53.7941C147.206 53.9762 147.185 54.1784 147.185 54.3806C147.185 54.6031 147.206 54.8255 147.246 55.048C147.286 55.2098 147.388 55.3513 147.509 55.4525C147.671 55.5536 147.853 55.6345 148.055 55.6547C148.338 55.6951 148.641 55.7154 148.925 55.7154C149.43 55.7356 149.916 55.6749 150.381 55.5131C150.704 55.3716 150.886 55.1693 150.886 54.9064V54.1177Z" fill="#1C188F"/>
<path d="M153.859 56.8681V46.3115H155.214V56.8681H153.859Z" fill="#1C188F"/>
<path d="M161.281 53.2278H162.697V53.5514C162.697 53.8952 162.717 54.2187 162.757 54.5625C162.778 54.7648 162.858 54.967 162.96 55.149C163.04 55.2906 163.182 55.3917 163.344 55.4524C163.546 55.513 163.748 55.5737 163.95 55.5939C164.132 55.6141 164.395 55.6344 164.759 55.6344C165.123 55.6344 165.548 55.6546 166.094 55.6546C166.539 55.6748 166.964 55.6344 167.388 55.5535C167.651 55.513 167.874 55.3917 168.056 55.2097C168.157 55.0883 168.218 54.9468 168.218 54.785C168.258 54.5019 168.278 54.2187 168.278 53.9356C168.278 53.6525 168.258 53.3693 168.238 53.0862C168.218 52.9244 168.177 52.7424 168.076 52.6009C167.995 52.4997 167.894 52.4189 167.773 52.3784C167.611 52.338 167.429 52.3177 167.247 52.2975L164.072 52.0346C163.647 52.0144 163.222 51.9335 162.818 51.7919C162.515 51.6908 162.232 51.5088 162.009 51.2863C161.787 51.0437 161.645 50.7403 161.564 50.4167C161.463 49.9921 161.423 49.5674 161.423 49.1427C161.423 48.3135 161.564 47.6461 161.827 47.1608C162.11 46.6754 162.596 46.3518 163.162 46.2507C163.425 46.2103 163.688 46.1698 163.93 46.1698C164.254 46.1496 164.679 46.1294 165.164 46.1294H165.528C166.074 46.1294 166.539 46.1496 166.903 46.1698C167.206 46.1901 167.53 46.2305 167.833 46.2912C168.036 46.3316 168.258 46.4125 168.44 46.5136C168.602 46.6148 168.764 46.7159 168.925 46.8372C169.148 47.0394 169.31 47.3023 169.391 47.6057C169.512 47.9899 169.552 48.3944 169.552 48.7989C169.552 48.9404 169.552 49.0618 169.552 49.1831C169.552 49.3045 169.552 49.3854 169.532 49.446H168.116V49.0618C168.116 48.7989 168.116 48.5562 168.076 48.2933C168.056 48.1517 168.015 47.9899 167.934 47.8686C167.874 47.7675 167.773 47.7068 167.651 47.6664C167.51 47.6259 167.348 47.5855 167.206 47.5652C166.519 47.4844 165.831 47.4641 165.144 47.4844C164.112 47.4844 163.465 47.5855 163.243 47.8079C163.101 47.9495 163 48.1113 162.96 48.3135C162.899 48.5764 162.858 48.8595 162.879 49.1427C162.879 49.3854 162.899 49.6078 162.939 49.8505C162.96 50.0123 163.02 50.1538 163.121 50.2954C163.222 50.3965 163.344 50.4774 163.465 50.5179C163.647 50.5785 163.849 50.619 164.052 50.619L167.287 50.8819C167.672 50.9021 168.056 50.983 168.42 51.1246C168.703 51.2257 168.966 51.4077 169.168 51.6504C169.37 51.893 169.512 52.1964 169.573 52.4997C169.653 52.9042 169.694 53.3087 169.694 53.7131C169.694 54.0772 169.694 54.3805 169.653 54.6232C169.633 54.8457 169.593 55.0681 169.552 55.2906C169.512 55.4524 169.451 55.6141 169.37 55.7759C169.289 55.9175 169.209 56.059 169.107 56.1804C168.966 56.322 168.824 56.4635 168.662 56.5646C168.48 56.686 168.278 56.7669 168.056 56.8073C167.752 56.868 167.429 56.9287 167.126 56.9287C166.741 56.9489 166.276 56.9691 165.69 56.9691H165.184C164.699 56.9691 164.294 56.9691 163.95 56.9287C163.667 56.9084 163.384 56.8882 163.101 56.8275C162.899 56.7871 162.697 56.7264 162.515 56.6253C162.353 56.5242 162.191 56.4231 162.07 56.3017C161.787 56.0591 161.564 55.7355 161.463 55.3715C161.321 54.8861 161.261 54.3805 161.281 53.8749V53.2278Z" fill="#1C188F"/>
<path d="M170.624 50.4975V49.3044H171.514V47.6663H172.869V49.3044H176.449V50.4975H172.869V54.3804C172.869 54.9264 172.95 55.2905 173.112 55.4522C173.273 55.6343 173.597 55.7151 174.082 55.7151C174.285 55.7151 174.487 55.6949 174.689 55.6545C174.831 55.6343 174.952 55.5534 175.053 55.4522C175.154 55.3309 175.215 55.1893 175.235 55.0478C175.276 54.8253 175.296 54.6029 175.276 54.3804V54.0164H176.651V54.2186C176.651 54.6635 176.61 55.1084 176.529 55.5331C176.469 55.8567 176.327 56.1398 176.105 56.3825C175.862 56.605 175.579 56.7668 175.255 56.8274C174.81 56.9285 174.345 56.969 173.88 56.9488C173.496 56.9488 173.132 56.9083 172.768 56.8072C172.485 56.7263 172.222 56.5645 172.04 56.3421C171.838 56.0994 171.696 55.8163 171.635 55.4927C171.554 55.068 171.514 54.6433 171.514 54.1984V50.4773H170.624V50.4975Z" fill="#1C188F"/>
<path d="M182.981 56.3625C182.738 56.585 182.455 56.7468 182.131 56.8277C181.686 56.9288 181.241 56.9894 180.776 56.9692C180.291 56.9692 179.785 56.9288 179.3 56.8479C178.956 56.7872 178.653 56.6456 178.39 56.4434C178.167 56.2412 177.985 55.9783 177.905 55.6951C177.803 55.3109 177.763 54.9267 177.763 54.5222C177.743 54.0975 177.803 53.6728 177.905 53.2481C177.985 52.965 178.147 52.7021 178.39 52.5201C178.653 52.3381 178.976 52.2167 179.3 52.1763C179.765 52.1156 180.251 52.0954 180.716 52.0954C181.161 52.0752 181.626 52.1156 182.071 52.2167C182.374 52.2774 182.637 52.3987 182.88 52.5807V51.6707C182.88 51.4482 182.859 51.2056 182.819 50.9831C182.778 50.8213 182.677 50.6798 182.556 50.5989C182.374 50.4977 182.172 50.4371 181.97 50.4371C181.707 50.4168 181.363 50.3966 180.938 50.3966C180.635 50.3966 180.392 50.3966 180.19 50.4169C180.028 50.4169 179.866 50.4775 179.725 50.5584C179.603 50.6191 179.522 50.7404 179.482 50.8618C179.421 51.0438 179.401 51.2258 179.401 51.4078H178.046V51.1044C178.046 50.8213 178.087 50.518 178.208 50.2551C178.309 50.0124 178.471 49.8102 178.693 49.6686C178.956 49.5068 179.26 49.3855 179.563 49.345C179.988 49.2641 180.433 49.2439 180.877 49.2439C181.282 49.2439 181.626 49.2439 181.929 49.2641C182.192 49.2641 182.435 49.3046 182.698 49.345C182.88 49.3652 183.062 49.4057 183.244 49.4866C183.385 49.527 183.507 49.6079 183.608 49.6888C183.709 49.7697 183.81 49.8708 183.911 49.9922C183.992 50.0933 184.073 50.2146 184.113 50.3562C184.174 50.5382 184.194 50.7 184.214 50.882C184.235 51.1449 184.255 51.428 184.255 51.6909V56.9085H183.001L182.981 56.3625ZM182.88 54.1177C182.88 53.8144 182.677 53.5515 182.394 53.4503C182.071 53.3088 181.545 53.2481 180.817 53.2481C180.554 53.2481 180.291 53.2683 180.028 53.2886C179.846 53.3088 179.684 53.3695 179.522 53.4503C179.401 53.5312 179.3 53.6526 179.26 53.7941C179.199 53.9762 179.179 54.1784 179.179 54.3806C179.179 54.6031 179.199 54.8255 179.239 55.048C179.28 55.2098 179.381 55.3513 179.502 55.4525C179.664 55.5536 179.846 55.6345 180.048 55.6547C180.331 55.6951 180.635 55.7154 180.918 55.7154C181.423 55.7356 181.909 55.6749 182.374 55.5131C182.698 55.3716 182.88 55.1693 182.88 54.9064V54.1177Z" fill="#1C188F"/>
<path d="M185.933 56.8681V49.3247H187.248V49.9719C187.672 49.4663 188.421 49.2236 189.493 49.2236C189.917 49.2236 190.342 49.2641 190.767 49.3652C191.09 49.4461 191.373 49.6079 191.616 49.8506C191.839 50.0932 192 50.3764 192.081 50.6999C192.182 51.1044 192.223 51.5493 192.223 51.974V56.8883H190.868V52.1762C190.868 51.8931 190.848 51.5898 190.807 51.3066C190.787 51.1246 190.706 50.9426 190.585 50.7808C190.463 50.6393 190.302 50.5584 190.12 50.5179C189.877 50.4573 189.614 50.437 189.371 50.437C188.663 50.437 188.138 50.5988 187.814 50.9224C187.49 51.246 187.308 51.7718 187.308 52.4594V56.8276H185.933V56.8681Z" fill="#1C188F"/>
<path d="M198.735 56.1601C198.512 56.4432 198.229 56.6454 197.885 56.7668C197.461 56.9083 197.016 56.9892 196.571 56.969C196.106 56.969 195.64 56.9286 195.196 56.8072C194.852 56.7061 194.528 56.5241 194.265 56.2814C194.023 56.0185 193.841 55.695 193.739 55.3512C193.618 54.9062 193.578 54.4411 193.578 53.976V52.257C193.578 51.7918 193.618 51.3267 193.739 50.8616C193.921 50.1538 194.468 49.5875 195.196 49.4055C195.64 49.2841 196.106 49.2235 196.571 49.2437C196.995 49.2235 197.44 49.3044 197.845 49.4459C198.168 49.5875 198.452 49.7897 198.694 50.0526V46.3315H200.049V56.8881H198.735V56.1601ZM198.694 52.4997C198.694 51.7918 198.532 51.266 198.189 50.9425C197.845 50.6189 197.319 50.4571 196.611 50.4571C195.944 50.4571 195.499 50.5784 195.297 50.8009C195.094 51.0436 194.973 51.5896 194.973 52.4794V53.7131C194.973 54.5827 195.074 55.1489 195.297 55.3916C195.499 55.6141 195.944 55.7354 196.611 55.7354C197.339 55.7354 197.865 55.5736 198.189 55.25C198.512 54.9265 198.694 54.4209 198.694 53.6928V52.4997Z" fill="#1C188F"/>
<path d="M206.682 56.3625C206.44 56.585 206.157 56.7468 205.833 56.8277C205.388 56.9288 204.943 56.9894 204.478 56.9692C203.993 56.9692 203.487 56.9288 203.002 56.8479C202.658 56.7872 202.355 56.6456 202.071 56.4434C201.849 56.2412 201.667 55.9783 201.586 55.6951C201.485 55.3109 201.445 54.9267 201.445 54.5222C201.424 54.0975 201.485 53.6728 201.586 53.2481C201.667 52.965 201.829 52.7021 202.071 52.5201C202.334 52.3381 202.658 52.2167 202.982 52.1763C203.447 52.1156 203.932 52.0954 204.397 52.0954C204.842 52.0752 205.307 52.1156 205.752 52.2167C206.055 52.2774 206.318 52.3987 206.561 52.5807V51.6707C206.561 51.4482 206.541 51.2056 206.5 50.9831C206.46 50.8213 206.359 50.6798 206.237 50.5989C206.055 50.4977 205.853 50.4371 205.651 50.4371C205.388 50.4168 205.044 50.3966 204.62 50.3966C204.316 50.3966 204.074 50.3966 203.871 50.4169C203.71 50.4169 203.548 50.4775 203.406 50.5584C203.285 50.6191 203.204 50.7404 203.164 50.8618C203.103 51.0438 203.083 51.2258 203.083 51.4078H201.748V51.1044C201.748 50.8213 201.788 50.518 201.91 50.2551C202.011 50.0124 202.173 49.8102 202.395 49.6686C202.658 49.5068 202.961 49.3855 203.265 49.345C203.689 49.2641 204.134 49.2439 204.579 49.2439C204.984 49.2439 205.327 49.2439 205.631 49.2641C205.894 49.2641 206.136 49.3046 206.399 49.345C206.581 49.3652 206.763 49.4057 206.945 49.4866C207.087 49.527 207.208 49.6079 207.309 49.6888C207.41 49.7697 207.512 49.8708 207.613 49.9922C207.694 50.0933 207.774 50.2146 207.815 50.3562C207.876 50.5382 207.896 50.7 207.916 50.882C207.936 51.1449 207.956 51.428 207.956 51.6909V56.9085H206.703L206.682 56.3625ZM206.602 54.1177C206.602 53.8144 206.399 53.5515 206.116 53.4503C205.793 53.3088 205.267 53.2481 204.539 53.2481C204.276 53.2481 204.013 53.2683 203.75 53.2886C203.568 53.3088 203.406 53.3695 203.244 53.4503C203.123 53.5312 203.022 53.6526 202.982 53.7941C202.921 53.9762 202.901 54.1784 202.901 54.3806C202.901 54.6031 202.921 54.8255 202.961 55.048C203.002 55.2098 203.103 55.3513 203.224 55.4525C203.386 55.5536 203.568 55.6345 203.77 55.6547C204.053 55.6951 204.357 55.7154 204.64 55.7154C205.145 55.7356 205.631 55.6749 206.096 55.5131C206.419 55.3716 206.602 55.1693 206.602 54.9064V54.1177Z" fill="#1C188F"/>
<path d="M209.615 56.8681V49.3247H210.929V49.9314C211.111 49.6888 211.354 49.4865 211.657 49.3854C212.021 49.2641 212.406 49.2236 212.79 49.2236C213.154 49.2236 213.518 49.2641 213.862 49.3652C214.145 49.4461 214.387 49.6281 214.569 49.8506C214.772 50.0932 214.913 50.3966 214.974 50.6999C215.055 51.1246 215.116 51.5493 215.095 51.974V52.1762H213.74V51.8324C213.74 51.61 213.72 51.3875 213.68 51.1651C213.659 51.0235 213.599 50.8819 213.498 50.7606C213.397 50.6595 213.275 50.5786 213.134 50.5584C212.952 50.5179 212.749 50.4977 212.547 50.4977C212.304 50.4977 212.062 50.5382 211.839 50.619C211.637 50.6999 211.475 50.8213 211.354 50.9831C211.212 51.1651 211.111 51.3875 211.071 51.61C211.01 51.9133 210.97 52.2167 210.99 52.5403V56.8883H209.615V56.8681Z" fill="#1C188F"/>
<path d="M220.859 56.1601C220.637 56.4432 220.353 56.6454 220.01 56.7668C219.585 56.9083 219.14 56.9892 218.695 56.969C218.23 56.969 217.765 56.9286 217.32 56.8072C216.612 56.6252 216.046 56.059 215.884 55.3512C215.763 54.9062 215.722 54.4411 215.722 53.976V52.257C215.722 51.7918 215.763 51.3267 215.884 50.8616C216.046 50.1335 216.612 49.5875 217.32 49.4055C217.765 49.2841 218.23 49.2235 218.695 49.2437C219.12 49.2235 219.565 49.3044 219.969 49.4459C220.293 49.5875 220.596 49.7897 220.819 50.0526V46.3315H222.173V56.8881H220.859V56.1601ZM220.819 52.4997C220.819 51.7918 220.657 51.266 220.313 50.9425C219.969 50.6189 219.443 50.4571 218.736 50.4571C218.068 50.4571 217.623 50.5784 217.421 50.8009C217.219 51.0436 217.118 51.5896 217.118 52.4794V53.7131C217.118 54.5827 217.219 55.1489 217.421 55.3916C217.623 55.6141 218.068 55.7354 218.736 55.7354C219.464 55.7354 219.989 55.5736 220.313 55.25C220.637 54.9265 220.819 54.4209 220.819 53.6928V52.4997Z" fill="#1C188F"/>
<path d="M223.69 54.4412H225.065V54.7446C225.065 55.149 225.187 55.4119 225.409 55.5535C225.672 55.7153 226.198 55.7759 227.007 55.7759C227.917 55.7759 228.463 55.6951 228.645 55.5535C228.827 55.4119 228.908 55.1288 228.908 54.6839C228.908 54.239 228.827 53.9558 228.685 53.8345C228.605 53.7738 228.524 53.7334 228.423 53.7132C228.281 53.6727 228.139 53.6525 227.978 53.6323C227.796 53.6121 227.573 53.5918 227.31 53.5716L226.36 53.5312C225.854 53.5109 225.45 53.4907 225.167 53.4503C224.964 53.4503 224.742 53.3896 224.56 53.3087C224.418 53.2278 224.277 53.1267 224.176 53.0256C224.074 52.9042 223.973 52.7829 223.913 52.6211C223.832 52.4593 223.791 52.2773 223.771 52.0953C223.731 51.8728 223.731 51.6504 223.731 51.4077C223.731 50.5583 223.953 49.9719 224.398 49.6685C224.843 49.3652 225.753 49.2034 227.189 49.2034C228.301 49.2034 229.07 49.3449 229.474 49.6281C229.899 49.9314 230.121 50.4977 230.121 51.3066H228.766V51.1044C228.766 50.983 228.746 50.8617 228.685 50.7606C228.605 50.6594 228.503 50.5786 228.382 50.5381C228.18 50.4774 227.998 50.437 227.796 50.4168C227.553 50.3965 227.229 50.3763 226.825 50.3763C226.42 50.3763 226.157 50.3763 225.935 50.3965C225.753 50.4168 225.571 50.4572 225.409 50.5381C225.288 50.5988 225.207 50.7201 225.146 50.8415C225.106 51.0235 225.086 51.1853 225.086 51.3673C225.086 51.5493 225.086 51.7111 225.126 51.8931C225.146 51.9942 225.207 52.0751 225.308 52.1155C225.49 52.1964 225.672 52.2369 225.854 52.2571C226.198 52.2975 226.542 52.3178 226.886 52.3178C227.432 52.3178 227.957 52.338 228.503 52.3987C228.787 52.4391 229.07 52.4998 229.353 52.5807C229.515 52.6616 229.676 52.7627 229.818 52.884C229.939 53.0054 230.04 53.1267 230.121 53.2885C230.202 53.4503 230.263 53.6323 230.283 53.8345C230.324 54.0772 230.344 54.2996 230.324 54.5423C230.324 54.785 230.303 55.0277 230.283 55.2704C230.263 55.4524 230.202 55.6546 230.121 55.8164C230.04 55.9782 229.939 56.1197 229.818 56.2411C229.676 56.3826 229.515 56.504 229.353 56.6051C229.11 56.7264 228.827 56.8073 228.544 56.8276C228.038 56.8882 227.533 56.9084 227.027 56.9084C225.713 56.9084 224.823 56.7467 224.378 56.4231C223.933 56.0995 223.71 55.513 223.71 54.6839L223.69 54.4412Z" fill="#1C188F"/>
</g>
<defs>
<clipPath id="clip0_2_108">
<rect width="230.323" height="62.7934" fill="white"/>
</clipPath>
</defs>
</svg>
