<svg width="12" height="13" viewBox="0 0 12 13" fill="none" xmlns="http://www.w3.org/2000/svg">
<path d="M11.6811 9.03097L10.0262 7.31993C9.43514 6.70884 8.43035 6.9533 8.19393 7.74769C8.01662 8.29769 7.42557 8.60324 6.89362 8.481C5.71152 8.17545 4.11568 6.58663 3.82016 5.30334C3.64284 4.75334 3.99747 4.14225 4.52942 3.95895C5.29778 3.71452 5.5342 2.67567 4.94315 2.06458L3.28821 0.353536C2.81537 -0.0742254 2.10611 -0.0742254 1.69237 0.353536L0.569378 1.5146C-0.553618 2.73678 0.687588 5.97554 3.46553 8.84765C6.24346 11.7198 9.37603 13.0642 10.5581 11.842L11.6811 10.6809C12.0949 10.192 12.0949 9.45874 11.6811 9.03097Z" fill="#1C188F"/>
</svg>
