<svg width="27" height="27" viewBox="0 0 27 27" fill="none" xmlns="http://www.w3.org/2000/svg">
<circle cx="13.0745" cy="13.3779" r="13" fill="white"/>
<path d="M13.0745 6.06567C11.6523 6.06567 10.2883 6.63065 9.28268 7.63631C8.27701 8.64198 7.71204 10.006 7.71204 11.4282C7.71204 14.2605 12.4895 20.2519 12.6943 20.5103C12.74 20.5672 12.7978 20.6132 12.8637 20.6448C12.9295 20.6763 13.0015 20.6927 13.0745 20.6927C13.1475 20.6927 13.2196 20.6763 13.2854 20.6448C13.3512 20.6132 13.4091 20.5672 13.4548 20.5103C13.6595 20.2519 18.437 14.2605 18.437 11.4282C18.437 10.006 17.8721 8.64198 16.8664 7.63631C15.8607 6.63065 14.4968 6.06567 13.0745 6.06567ZM13.0745 12.8907C12.6889 12.8907 12.3119 12.7763 11.9912 12.562C11.6705 12.3478 11.4206 12.0432 11.273 11.6869C11.1254 11.3306 11.0868 10.9385 11.162 10.5602C11.2372 10.182 11.423 9.83453 11.6957 9.56182C11.9684 9.2891 12.3158 9.10338 12.6941 9.02814C13.0724 8.9529 13.4645 8.99152 13.8208 9.13911C14.1771 9.2867 14.4816 9.53664 14.6959 9.85731C14.9102 10.178 15.0245 10.555 15.0245 10.9407C15.0245 11.4578 14.8191 11.9538 14.4534 12.3195C14.0877 12.6852 13.5917 12.8907 13.0745 12.8907Z" fill="#1C188F"/>
</svg>
