<svg width="18" height="13" viewBox="0 0 18 13" fill="none" xmlns="http://www.w3.org/2000/svg">
<path d="M10.5043 8.36872C10.0565 8.64374 9.53631 8.78912 9 8.78912C8.46373 8.78912 7.94356 8.64374 7.49574 8.36872L0.119848 3.83874C0.0789258 3.81361 0.0390586 3.78741 0 3.76046V11.1833C0 12.0344 0.749707 12.7098 1.65702 12.7098H16.343C17.2668 12.7098 18 12.0191 18 11.1833V3.76043C17.9608 3.78744 17.9209 3.8137 17.8799 3.83887L10.5043 8.36872Z" fill="white"/>
<path d="M0.704883 3.03015L8.08077 7.56016C8.35998 7.73165 8.67997 7.81737 8.99996 7.81737C9.31999 7.81737 9.64002 7.73161 9.91923 7.56016L17.2951 3.03015C17.7365 2.75924 18 2.30583 18 1.81647C18 0.975045 17.2569 0.290527 16.3435 0.290527H1.65646C0.743098 0.29056 0 0.975077 0 1.81728C0 2.30583 0.263531 2.75924 0.704883 3.03015Z" fill="white"/>
</svg>
