<svg width="26" height="26" viewBox="0 0 26 26" fill="none" xmlns="http://www.w3.org/2000/svg">
<path d="M13 0C10.4288 0 7.91543 0.762436 5.77759 2.19089C3.63975 3.61935 1.97351 5.64967 0.989572 8.02511C0.00563264 10.4006 -0.251811 13.0144 0.249797 15.5362C0.751405 18.0579 1.98953 20.3743 3.80762 22.1924C5.6257 24.0105 7.94208 25.2486 10.4638 25.7502C12.9856 26.2518 15.5994 25.9944 17.9749 25.0104C20.3503 24.0265 22.3806 22.3602 23.8091 20.2224C25.2376 18.0846 26 15.5712 26 13C26 9.55218 24.6304 6.24558 22.1924 3.80761C19.7544 1.36964 16.4478 0 13 0ZM16.2945 11.7684L16.0789 13.5799C16.0696 13.6639 16.0295 13.7416 15.9664 13.7978C15.9032 13.854 15.8214 13.8849 15.7368 13.8843H13.8553V19.2554C13.8557 19.3195 13.8308 19.3812 13.7859 19.427C13.7411 19.4729 13.6799 19.4991 13.6158 19.5H11.7C11.6681 19.4995 11.6366 19.4928 11.6073 19.4802C11.578 19.4676 11.5515 19.4493 11.5292 19.4264C11.507 19.4036 11.4895 19.3765 11.4777 19.3469C11.4659 19.3173 11.4601 19.2856 11.4605 19.2537L11.4708 13.8843H10.0459C9.95519 13.8843 9.86818 13.8483 9.80402 13.7841C9.73986 13.72 9.70382 13.633 9.70382 13.5422V11.7325C9.70382 11.6418 9.73986 11.5547 9.80402 11.4906C9.86818 11.4264 9.95519 11.3904 10.0459 11.3904H11.4605V9.63539C11.4605 7.605 12.6699 6.5 14.4368 6.5H15.8857C15.9764 6.5 16.0634 6.53604 16.1276 6.6002C16.1917 6.66436 16.2278 6.75137 16.2278 6.8421V8.36618C16.2278 8.45691 16.1917 8.54393 16.1276 8.60809C16.0634 8.67224 15.9764 8.70829 15.8857 8.70829H14.9979C14.0366 8.72368 13.8553 9.18381 13.8553 9.87145V11.3853H15.9626C16.0104 11.3863 16.0573 11.3974 16.1005 11.4177C16.1437 11.4381 16.1822 11.4672 16.2135 11.5033C16.2447 11.5394 16.2681 11.5816 16.282 11.6273C16.296 11.6729 16.3002 11.721 16.2945 11.7684Z" fill="white"/>
</svg>
