<svg width="17" height="18" viewBox="0 0 17 18" fill="none" xmlns="http://www.w3.org/2000/svg">
<path d="M16.8308 12.9428L16.8117 2.8731C16.8092 1.50616 15.784 0.394043 14.5266 0.394043H2.28516C1.02512 0.394043 0 1.50847 0 2.87823V12.9253C0 14.2951 1.02512 15.4095 2.28516 15.4095H3.85938V17.0656C3.85938 17.7465 4.57656 18.137 5.07813 17.7281L7.92086 15.4103L14.5388 15.4321C15.8237 15.4321 16.8334 14.3067 16.8308 12.9428ZM8.37891 12.0421C7.95823 12.0421 7.61719 11.6713 7.61719 11.214C7.61719 10.7567 7.95823 10.3859 8.37891 10.3859C8.79958 10.3859 9.14063 10.7567 9.14063 11.214C9.14063 11.6713 8.79958 12.0421 8.37891 12.0421ZM9.19141 8.58779V8.67463C9.19141 9.13195 8.85036 9.50271 8.42969 9.50271C8.00902 9.50271 7.66797 9.13195 7.66797 8.67463V8.15796C7.66797 7.61104 8.04187 7.14141 8.5377 7.0655C8.91038 7.00848 9.19141 6.65604 9.19141 6.24559C9.19141 5.64214 8.5797 5.1247 7.87983 5.61156C7.52538 5.858 7.05438 5.74543 6.82769 5.36026C6.601 4.97504 6.7045 4.46296 7.05885 4.21646C7.84443 3.67015 8.76662 3.61379 9.5259 4.06553C10.2592 4.50204 10.7148 5.33735 10.7148 6.24565C10.7148 7.30885 10.0848 8.24259 9.19141 8.58779Z" fill="white"/>
</svg>
