<svg width="22" height="22" viewBox="0 0 22 22" fill="none" xmlns="http://www.w3.org/2000/svg">
<path d="M9.63469 7.00006C9.44246 6.80181 9.12591 6.79693 8.92766 6.98917C8.72942 7.1814 8.72454 7.49794 8.91677 7.69619L9.63469 7.00006ZM12.6236 10.8008L12.9826 11.1489L13.3201 10.8008L12.9826 10.4527L12.6236 10.8008ZM8.91677 13.9054C8.72454 14.1036 8.72942 14.4202 8.92766 14.6124C9.12591 14.8047 9.44246 14.7998 9.63469 14.6015L8.91677 13.9054ZM20.1889 10.8008C20.1889 16.0865 16.0379 20.345 10.9495 20.345V21.345C16.619 21.345 21.1889 16.6096 21.1889 10.8008H20.1889ZM10.9495 20.345C5.86119 20.345 1.71017 16.0865 1.71017 10.8008H0.710175C0.710175 16.6096 5.28008 21.345 10.9495 21.345V20.345ZM1.71017 10.8008C1.71017 5.51513 5.86119 1.25671 10.9495 1.25671V0.256714C5.28008 0.256714 0.710175 4.99211 0.710175 10.8008H1.71017ZM10.9495 1.25671C16.0379 1.25671 20.1889 5.51513 20.1889 10.8008H21.1889C21.1889 4.99211 16.619 0.256714 10.9495 0.256714V1.25671ZM8.91677 7.69619L12.2647 11.1489L12.9826 10.4527L9.63469 7.00006L8.91677 7.69619ZM12.2647 10.4527L8.91677 13.9054L9.63469 14.6015L12.9826 11.1489L12.2647 10.4527Z" fill="#1C188F"/>
</svg>
