<svg width="27" height="27" viewBox="0 0 27 27" fill="none" xmlns="http://www.w3.org/2000/svg">
<path d="M26.0745 13.9482C26.0745 21.1279 20.2542 26.9482 13.0745 26.9482C5.89476 26.9482 0.0744629 21.1279 0.0744629 13.9482C0.0744629 6.76854 5.89476 0.948242 13.0745 0.948242C20.2542 0.948242 26.0745 6.76854 26.0745 13.9482Z" fill="white"/>
<path d="M14.1919 15.3714C13.8592 15.5808 13.4728 15.6916 13.0744 15.6916C12.676 15.6916 12.2896 15.5808 11.9569 15.3714L6.4777 11.9215C6.4473 11.9023 6.41769 11.8824 6.38867 11.8618V17.5149C6.38867 18.1631 6.9456 18.6774 7.6196 18.6774H18.5291C19.2154 18.6774 19.7601 18.1515 19.7601 17.5149V11.8618C19.731 11.8824 19.7013 11.9024 19.6709 11.9216L14.1919 15.3714Z" fill="#1C188F"/>
<path d="M6.91236 11.3053L12.3916 14.7554C12.599 14.886 12.8367 14.9513 13.0744 14.9513C13.3121 14.9513 13.5499 14.886 13.7573 14.7554L19.2365 11.3053C19.5644 11.099 19.7601 10.7536 19.7601 10.3809C19.7601 9.74009 19.2081 9.21875 18.5296 9.21875H7.61924C6.94075 9.21877 6.38873 9.74011 6.38873 10.3816C6.38873 10.7536 6.5845 11.099 6.91236 11.3053Z" fill="#1C188F"/>
</svg>
