<svg width="26" height="27" viewBox="0 0 26 27" fill="none" xmlns="http://www.w3.org/2000/svg">
<path d="M11.4452 11.502L15.5009 14.0769L11.4452 16.6536V11.502Z" fill="white"/>
<path d="M13 0.63623C10.4288 0.63623 7.91543 1.39867 5.77759 2.82712C3.63975 4.25558 1.97351 6.2859 0.989572 8.66134C0.0056327 11.0368 -0.251811 13.6506 0.249797 16.1724C0.751405 18.6942 1.98953 21.0105 3.80762 22.8286C5.6257 24.6467 7.94208 25.8848 10.4638 26.3864C12.9856 26.888 15.5994 26.6306 17.9749 25.6467C20.3503 24.6627 22.3806 22.9965 23.8091 20.8586C25.2376 18.7208 26 16.2074 26 13.6362C26 10.1884 24.6304 6.88181 22.1924 4.44384C19.7544 2.00587 16.4478 0.63623 13 0.63623ZM19.1955 16.7648C18.9355 17.5636 18.0751 18.0494 17.2832 18.1606C14.4357 18.4633 11.5643 18.4633 8.71685 18.1606C7.92487 18.0494 7.06448 17.5636 6.80448 16.7648C6.3991 14.6994 6.3991 12.5748 6.80448 10.5094C7.06448 9.70202 7.92487 9.22478 8.72369 9.1136C11.5711 8.81083 14.4426 8.81083 17.29 9.1136C18.082 9.22478 18.9424 9.70886 19.2024 10.5094C19.6055 12.5753 19.6032 14.6998 19.1955 16.7648Z" fill="white"/>
</svg>
